<svg width="64" height="64" viewBox="0 0 64 64" fill="none" xmlns="http://www.w3.org/2000/svg">
<path d="M16.16 20H9.92004C9.65483 20 9.40047 20.1054 9.21294 20.2929C9.0254 20.4804 8.92004 20.7348 8.92004 21V27.25C8.92004 27.5152 9.0254 27.7696 9.21294 27.9571C9.40047 28.1446 9.65483 28.25 9.92004 28.25H16.16C16.4253 28.25 16.6796 28.1446 16.8672 27.9571C17.0547 27.7696 17.16 27.5152 17.16 27.25V21C17.16 20.7348 17.0547 20.4804 16.8672 20.2929C16.6796 20.1054 16.4253 20 16.16 20ZM15.16 26.25H10.92V22H15.16V26.25Z" fill="#ffffff" id="id_101"></path>
<path d="M33.84 23.13H21.79C21.5248 23.13 21.2705 23.2354 21.0829 23.4229C20.8954 23.6104 20.79 23.8648 20.79 24.13C20.79 24.3952 20.8954 24.6496 21.0829 24.8371C21.2705 25.0246 21.5248 25.13 21.79 25.13H33.84C34.1053 25.13 34.3596 25.0246 34.5471 24.8371C34.7347 24.6496 34.84 24.3952 34.84 24.13C34.84 23.8648 34.7347 23.6104 34.5471 23.4229C34.3596 23.2354 34.1053 23.13 33.84 23.13Z" fill="#ffffff" id="id_102"></path>
<path d="M16.16 32.37H9.92004C9.65483 32.37 9.40047 32.4754 9.21294 32.6629C9.0254 32.8504 8.92004 33.1048 8.92004 33.37V39.61C8.92004 39.8752 9.0254 40.1296 9.21294 40.3171C9.40047 40.5046 9.65483 40.61 9.92004 40.61H16.16C16.4253 40.61 16.6796 40.5046 16.8672 40.3171C17.0547 40.1296 17.16 39.8752 17.16 39.61V33.37C17.16 33.1048 17.0547 32.8504 16.8672 32.6629C16.6796 32.4754 16.4253 32.37 16.16 32.37ZM15.16 38.61H10.92V34.37H15.16V38.61Z" fill="#ffffff" id="id_103"></path>
<path d="M33.84 35.49H21.79C21.5248 35.49 21.2705 35.5953 21.0829 35.7829C20.8954 35.9704 20.79 36.2248 20.79 36.49C20.79 36.7552 20.8954 37.0096 21.0829 37.1971C21.2705 37.3846 21.5248 37.49 21.79 37.49H33.84C34.1053 37.49 34.3596 37.3846 34.5471 37.1971C34.7347 37.0096 34.84 36.7552 34.84 36.49C34.84 36.2248 34.7347 35.9704 34.5471 35.7829C34.3596 35.5953 34.1053 35.49 33.84 35.49Z" fill="#ffffff" id="id_104"></path>
<path d="M16.16 44.73H9.92004C9.65483 44.73 9.40047 44.8353 9.21294 45.0229C9.0254 45.2104 8.92004 45.4648 8.92004 45.73V52C8.92004 52.2652 9.0254 52.5196 9.21294 52.7071C9.40047 52.8946 9.65483 53 9.92004 53H16.16C16.4253 53 16.6796 52.8946 16.8672 52.7071C17.0547 52.5196 17.16 52.2652 17.16 52V45.73C17.16 45.4648 17.0547 45.2104 16.8672 45.0229C16.6796 44.8353 16.4253 44.73 16.16 44.73ZM15.16 50.97H10.92V46.73H15.16V50.97Z" fill="#ffffff" id="id_105"></path>
<path d="M33.84 47.85H21.79C21.5248 47.85 21.2705 47.9553 21.0829 48.1429C20.8954 48.3304 20.79 48.5848 20.79 48.85C20.79 49.1152 20.8954 49.3695 21.0829 49.5571C21.2705 49.7446 21.5248 49.85 21.79 49.85H33.84C34.1053 49.85 34.3596 49.7446 34.5471 49.5571C34.7347 49.3695 34.84 49.1152 34.84 48.85C34.84 48.5848 34.7347 48.3304 34.5471 48.1429C34.3596 47.9553 34.1053 47.85 33.84 47.85Z" fill="#ffffff" id="id_106"></path>
<path d="M56.53 39.77C55.79 39.08 55.75 37.92 55.77 36.6C55.6137 34.9151 54.9198 33.3251 53.7908 32.0647C52.6619 30.8043 51.1576 29.9402 49.5 29.6C49.6922 28.8164 50.1413 28.1198 50.7757 27.6214C51.4101 27.1229 52.1932 26.8513 53 26.85C53.2652 26.85 53.5196 26.7446 53.7071 26.5571C53.8946 26.3696 54 26.1152 54 25.85C54 25.5848 53.8946 25.3304 53.7071 25.1429C53.5196 24.9553 53.2652 24.85 53 24.85C51.6682 24.8514 50.3802 25.3257 49.3656 26.1883C48.351 27.0509 47.6756 28.2458 47.46 29.56C45.5672 29.8942 43.8647 30.9164 42.68 32.43V14.53C42.68 13.9159 42.5589 13.3078 42.3236 12.7405C42.0882 12.1733 41.7434 11.658 41.3087 11.2243C40.8739 10.7905 40.3579 10.4467 39.7902 10.2126C39.2225 9.9785 38.6141 9.85868 38 9.85999H32.53V9.57999C32.5301 8.63912 32.1598 7.73603 31.4992 7.06606C30.8386 6.3961 29.9408 6.01313 29 5.99999H26.86C26.6469 5.13051 26.1483 4.35765 25.4439 3.8051C24.7396 3.25255 23.8702 2.95224 22.975 2.95224C22.0798 2.95224 21.2104 3.25255 20.5061 3.8051C19.8017 4.35765 19.3031 5.13051 19.09 5.99999H17.69C16.7423 5.99999 15.8332 6.37579 15.1621 7.04501C14.491 7.71423 14.1126 8.62225 14.11 9.56999V9.84999H8.65C7.41399 9.85792 6.23131 10.3545 5.36012 11.2313C4.48892 12.1081 3.99997 13.294 4 14.53V56.33C4.00261 57.5643 4.49273 58.7476 5.36364 59.6222C6.23454 60.4969 7.41572 60.9921 8.65 61H38C38.7304 61 39.4505 60.8281 40.102 60.498C40.7535 60.1679 41.3181 59.6889 41.75 59.1C43.4954 60.3598 45.5976 61.029 47.75 61.01H48.39C52.93 61.27 56.82 58.78 58.82 54.34C59.9592 51.9653 60.3501 49.3006 59.9412 46.6988C59.5323 44.097 58.3427 41.6807 56.53 39.77V39.77ZM16.11 9.57999C16.1087 9.37213 16.1486 9.16608 16.2276 8.97378C16.3065 8.78149 16.4228 8.60678 16.5698 8.4598C16.7168 8.31282 16.8915 8.19649 17.0838 8.11756C17.2761 8.03863 17.4821 7.99866 17.69 7.99999H20C20.2652 7.99999 20.5196 7.89464 20.7071 7.7071C20.8946 7.51956 21 7.26521 21 6.99999C21 6.46956 21.2107 5.96085 21.5858 5.58578C21.9609 5.21071 22.4696 4.99999 23 4.99999C23.5304 4.99999 24.0391 5.21071 24.4142 5.58578C24.7893 5.96085 25 6.46956 25 6.99999C25 7.26521 25.1054 7.51956 25.2929 7.7071C25.4804 7.89464 25.7348 7.99999 26 7.99999H29C29.207 7.99867 29.4122 8.03831 29.6039 8.11662C29.7955 8.19493 29.9698 8.31037 30.1166 8.45628C30.2635 8.6022 30.38 8.77572 30.4595 8.96686C30.5391 9.158 30.58 9.36297 30.58 9.56999V12.13C30.58 12.549 30.4135 12.9509 30.1172 13.2472C29.8209 13.5435 29.419 13.71 29 13.71H17.69C17.2727 13.71 16.8723 13.5449 16.5763 13.2508C16.2803 12.9566 16.1126 12.5573 16.11 12.14V9.57999ZM38 59H8.65C7.94616 58.9921 7.27367 58.7077 6.77782 58.2081C6.28198 57.7085 6.00258 57.0339 6 56.33V14.53C6.00263 13.8227 6.28478 13.1451 6.78494 12.6449C7.28509 12.1448 7.96268 11.8626 8.67 11.86H14.13V12.14C14.1326 13.0877 14.511 13.9958 15.1821 14.665C15.8532 15.3342 16.7623 15.71 17.71 15.71H29C29.9477 15.71 30.8568 15.3342 31.5279 14.665C32.199 13.9958 32.5774 13.0877 32.58 12.14V11.86H38C38.7073 11.8626 39.3849 12.1448 39.8851 12.6449C40.3852 13.1451 40.6674 13.8227 40.67 14.53V39.07C40.5619 39.335 40.3982 39.5737 40.19 39.77C38.3868 41.6804 37.2048 44.0923 36.7995 46.6879C36.3943 49.2834 36.785 51.9409 37.92 54.31C38.4893 55.5884 39.2703 56.7615 40.23 57.78C39.991 58.1546 39.6613 58.4628 39.2715 58.6761C38.8817 58.8893 38.4443 59.0007 38 59V59ZM57 53.5C56.333 55.2026 55.1452 56.6511 53.6063 57.6388C52.0673 58.6264 50.2557 59.1028 48.43 59C48.3873 58.9898 48.3427 58.9898 48.3 59C46.4747 59.0999 44.6645 58.621 43.1274 57.6316C41.5903 56.6422 40.4049 55.1928 39.74 53.49C37.82 49.25 38.59 44.19 41.58 41.22C43 39.85 43 37.84 43 36.74C43.1285 35.3662 43.7393 34.0822 44.724 33.1157C45.7088 32.1493 47.004 31.5627 48.38 31.46C49.7501 31.5459 51.0459 32.1126 52.0393 33.0602C53.0326 34.0077 53.6596 35.2755 53.81 36.64C53.81 37.83 53.74 39.83 55.17 41.19C58.12 44.19 58.88 49.25 57 53.5Z" fill="#ffffff" id="id_107"></path>
<path d="M48.35 42.55C46.9794 42.55 45.6396 42.9564 44.4999 43.7179C43.3603 44.4794 42.4721 45.5617 41.9476 46.828C41.423 48.0943 41.2858 49.4877 41.5532 50.832C41.8206 52.1763 42.4806 53.4111 43.4498 54.3802C44.419 55.3494 45.6538 56.0094 46.9981 56.2768C48.3424 56.5442 49.7358 56.407 51.002 55.8825C52.2683 55.358 53.3507 54.4697 54.1121 53.3301C54.8736 52.1905 55.28 50.8506 55.28 49.48C55.2774 47.6429 54.5464 45.8817 53.2474 44.5827C51.9483 43.2836 50.1872 42.5526 48.35 42.55V42.55ZM48.35 54.4C47.3746 54.4 46.421 54.1106 45.61 53.5684C44.7991 53.0263 44.1672 52.2557 43.7944 51.3543C43.4215 50.4529 43.3245 49.4611 43.5155 48.5045C43.7066 47.5479 44.1771 46.6695 44.8676 45.9804C45.558 45.2913 46.4374 44.8226 47.3944 44.6335C48.3514 44.4444 49.343 44.5435 50.2436 44.9181C51.1443 45.2928 51.9135 45.9263 52.4541 46.7383C52.9946 47.5504 53.282 48.5045 53.28 49.48C53.2748 50.785 52.7533 52.0348 51.8296 52.9566C50.906 53.8785 49.655 54.3974 48.35 54.4V54.4Z" fill="#ffffff" id="id_108"></path>
</svg>