<svg xmlns="http://www.w3.org/2000/svg" xml:space="preserve" width="512px" height="512px" version="1.1" style="shape-rendering:geometricPrecision; text-rendering:geometricPrecision; image-rendering:optimizeQuality; fill-rule:evenodd; clip-rule:evenodd" viewBox="0 0 512 512" xmlns:xlink="http://www.w3.org/1999/xlink">
 <defs>
  <style type="text/css">
   
    .fil0 {fill:black}
   
  </style>
 </defs>
 <g id="Layer_x0020_1">
  <metadata id="CorelCorpID_0Corel-Layer"></metadata>
  <g id="_345973800">
   <g>
    <g>
     <g>
      <path class="fil0" d="M344 512l-176 0c-4,0 -7,-3 -7,-7l0 -498c0,-4 3,-7 7,-7l176 0c4,0 7,3 7,7l0 498c0,4 -3,7 -7,7zm-169 -14l162 0 0 -484 -162 0 0 484z" id="id_101" style="fill: rgb(255, 255, 255);"></path>
     </g>
     <g>
      <path class="fil0" d="M344 464l-62 0c-4,0 -7,-3 -7,-7 0,-4 3,-7 7,-7l62 0c4,0 7,3 7,7 0,4 -3,7 -7,7z" id="id_102" style="fill: rgb(255, 255, 255);"></path>
     </g>
     <g>
      <path class="fil0" d="M344 431l-74 0c-4,0 -7,-3 -7,-7 0,-4 3,-7 7,-7l74 0c4,0 7,3 7,7 0,4 -3,7 -7,7z" id="id_103" style="fill: rgb(255, 255, 255);"></path>
     </g>
     <g>
      <path class="fil0" d="M344 397l-53 0c-4,0 -7,-3 -7,-7 0,-4 3,-7 7,-7l53 0c4,0 7,3 7,7 0,4 -3,7 -7,7z" id="id_104" style="fill: rgb(255, 255, 255);"></path>
     </g>
     <g>
      <path class="fil0" d="M344 364l-74 0c-4,0 -7,-3 -7,-7 0,-4 3,-7 7,-7l74 0c4,0 7,3 7,7 0,4 -3,7 -7,7z" id="id_105" style="fill: rgb(255, 255, 255);"></path>
     </g>
     <g>
      <path class="fil0" d="M344 330l-48 0c-4,0 -7,-3 -7,-7 0,-4 3,-7 7,-7l48 0c4,0 7,3 7,7 0,4 -3,7 -7,7z" id="id_106" style="fill: rgb(255, 255, 255);"></path>
     </g>
     <g>
      <path class="fil0" d="M344 297l-74 0c-4,0 -7,-3 -7,-7 0,-4 3,-7 7,-7l74 0c4,0 7,3 7,7 0,4 -3,7 -7,7z" id="id_107" style="fill: rgb(255, 255, 255);"></path>
     </g>
     <g>
      <path class="fil0" d="M344 263l-65 0c-4,0 -7,-3 -7,-7 0,-4 3,-7 7,-7l65 0c4,0 7,3 7,7 0,4 -3,7 -7,7z" id="id_108" style="fill: rgb(255, 255, 255);"></path>
     </g>
     <g>
      <path class="fil0" d="M344 229l-74 0c-4,0 -7,-3 -7,-7 0,-4 3,-7 7,-7l74 0c4,0 7,3 7,7 0,4 -3,7 -7,7z" id="id_109" style="fill: rgb(255, 255, 255);"></path>
     </g>
     <g>
      <path class="fil0" d="M344 196l-61 0c-4,0 -7,-3 -7,-7 0,-4 3,-7 7,-7l61 0c4,0 7,3 7,7 0,4 -3,7 -7,7z" id="id_110" style="fill: rgb(255, 255, 255);"></path>
     </g>
     <g>
      <path class="fil0" d="M344 162l-74 0c-4,0 -7,-3 -7,-7 0,-4 3,-7 7,-7l74 0c4,0 7,3 7,7 0,4 -3,7 -7,7z" id="id_111" style="fill: rgb(255, 255, 255);"></path>
     </g>
     <g>
      <path class="fil0" d="M344 129l-59 0c-4,0 -7,-3 -7,-7 0,-4 3,-7 7,-7l59 0c4,0 7,3 7,7 0,4 -3,7 -7,7z" id="id_112" style="fill: rgb(255, 255, 255);"></path>
     </g>
     <g>
      <path class="fil0" d="M344 95l-74 0c-4,0 -7,-3 -7,-7 0,-4 3,-7 7,-7l74 0c4,0 7,3 7,7 0,4 -3,7 -7,7z" id="id_113" style="fill: rgb(255, 255, 255);"></path>
     </g>
     <g>
      <path class="fil0" d="M344 62l-49 0c-4,0 -7,-3 -7,-7 0,-4 3,-7 7,-7l49 0c4,0 7,3 7,7 0,4 -3,7 -7,7z" id="id_114" style="fill: rgb(255, 255, 255);"></path>
     </g>
    </g>
    <g>
     <path class="fil0" d="M235 86c-17,0 -30,-13 -30,-30 0,-16 13,-29 30,-29 16,0 29,13 29,29 0,16 -13,30 -29,30zm0 -45c-9,0 -16,7 -16,15 0,9 7,16 16,16 8,0 15,-7 15,-16 0,-8 -7,-15 -15,-15z" id="id_115" style="fill: rgb(255, 255, 255);"></path>
    </g>
   </g>
  </g>
 </g>
</svg>